{"title":"Tuneega Tuneega (2012) Telugu Movie Cam Rip - Team-CC","uid":7500596,"size":1174711838,"categoryP":"video","categoryS":"movies","magnet":"?xt=urn:btih:f85479a580b7b9304e95ba0c3be5d57660e0117b&amp;dn=Tuneega+Tuneega+%282012%29+Telugu+Movie+Cam+Rip+-+Team-CC&amp;tr=udp%3A%2F%2Ftracker.openbittorrent.com%3A80&amp;tr=udp%3A%2F%2Fopen.demonii.com%3A1337&amp;tr=udp%3A%2F%2Ftracker.coppersurfer.tk%3A6969&amp;tr=udp%3A%2F%2Fexodus.desync.com%3A6969","seeders":0,"leechers":1,"uploader":"TeamCC","files":7,"time":1344010430,"description":"Visit [url=&quot;http://team-cc.com/&quot;]http://team-cc.com/[/url] For More EXCLUSIVE Releases\n\n[code]Format                           : AVI\nFormat/Info                      : Audio Video Interleave\nFormat profile                   : OpenDML\nFile size                        : 1.09 GiB\nDuration                         : 2h 16mn\nOverall bit rate                 : 1 145 Kbps\nWriting application              : Lavf52.31.0\n\nVideo\nID                               : 0\nFormat                           : MPEG-4 Visual\nFormat profile                   : Simple@L3\nFormat settings, BVOP            : No\nFormat settings, QPel            : No\nFormat settings, GMC             : No warppoints\nFormat settings, Matrix          : Default (H.263)\nCodec ID                         : XVID\nCodec ID/Hint                    : XviD\nDuration                         : 2h 16mn\nBit rate                         : 107 Kbps\nWidth                            : 608 pixels\nHeight                           : 272 pixels\nDisplay aspect ratio             : 2.25:1\nFrame rate                       : 29.970 fps\nColor space                      : YUV\nChroma subsampling               : 4:2:0\nBit depth                        : 8 bits\nScan type                        : Progressive\nCompression mode                 : Lossy\nBits/(Pixel*Frame)               : 0.022\nStream size                      : 104 MiB (9%)\nWriting library                  : XviD 1.2.1 (UTC 2008-12-04)\n\nAudio\nID                               : 1\nFormat                           : MPEG Audio\nFormat version                   : Version 1\nFormat profile                   : Layer 3\nMode                             : Joint stereo\nMode extension                   : MS Stereo\nCodec ID                         : 55\nCodec ID/Hint                    : MP3\nDuration                         : 2h 16mn\nBit rate mode                    : Constant\nBit rate                         : 128 Kbps\nChannel(s)                       : 2 channels\nSampling rate                    : 44.1 KHz\nCompression mode                 : Lossy\nStream size                      : 9.34 MiB (1%)\nAlignment                        : Aligned on interleaves\nInterleave, duration             : 38 ms (1.13 video frame)[/code]\n  &lt;a href=&quot;\nhttp://i.imgur.com/5B7ZS.png&quot; rel=&quot;nofollow&quot; target=&quot;_NEW&quot;&gt;\nhttp://i.imgur.com/5B7ZS.png&lt;/a&gt;  &lt;a href=&quot;\nhttp://i.imgur.com/e9jm6.png&quot; rel=&quot;nofollow&quot; target=&quot;_NEW&quot;&gt;\nhttp://i.imgur.com/e9jm6.png&lt;/a&gt;  &lt;a href=&quot;\nhttp://i.imgur.com/m0kQ3.png&quot; rel=&quot;nofollow&quot; target=&quot;_NEW&quot;&gt;\nhttp://i.imgur.com/m0kQ3.png&lt;/a&gt;  &lt;a href=&quot;\nhttp://i.imgur.com/9Yiic.png&quot; rel=&quot;nofollow&quot; target=&quot;_NEW&quot;&gt;\nhttp://i.imgur.com/9Yiic.png&lt;/a&gt;\n\nVisit [url=&quot;http://team-cc.com/&quot;]http://team-cc.com/[/url] For More EXCLUSIVE Releases\t","torrent":{"xt":"urn:btih:f85479a580b7b9304e95ba0c3be5d57660e0117b","amp;dn":"Tuneega+Tuneega+%282012%29+Telugu+Movie+Cam+Rip+-+Team-CC","amp;tr":["udp%3A%2F%2Ftracker.openbittorrent.com%3A80","udp%3A%2F%2Fopen.demonii.com%3A1337","udp%3A%2F%2Ftracker.coppersurfer.tk%3A6969","udp%3A%2F%2Fexodus.desync.com%3A6969"],"infoHash":"f85479a580b7b9304e95ba0c3be5d57660e0117b","infoHashBuffer":{"type":"Buffer","data":[248,84,121,165,128,183,185,48,78,149,186,12,59,229,213,118,96,224,17,123]},"announce":[],"urlList":[]}}